<svg xmlns="http://www.w3.org/2000/svg" xmlns:xlink="http://www.w3.org/1999/xlink" width="500" zoomAndPan="magnify" viewBox="0 0 375 374.999991" height="500" preserveAspectRatio="xMidYMid meet" version="1.0"><defs><g/><clipPath id="ec44838a1f"><path d="M 187.5 0 C 83.945312 0 0 83.945312 0 187.5 C 0 291.054688 83.945312 375 187.5 375 C 291.054688 375 375 291.054688 375 187.5 C 375 83.945312 291.054688 0 187.5 0 Z M 187.5 0 " clip-rule="nonzero"/></clipPath></defs><g clip-path="url(#ec44838a1f)"><rect x="-37.5" width="450" fill="#ffcc00" y="-37.499999" height="449.999989" fill-opacity="1"/></g><g fill="#000000" fill-opacity="1"><g transform="translate(79.778174, 298.788033)"><g><path d="M 132.9375 -53.6875 L 63.234375 -53.6875 L 40.34375 0 L -15.859375 0 L 109.15625 -262.28125 L 156.546875 -262.28125 L 190.953125 0 L 137.4375 0 Z M 82.140625 -97.8125 L 129.34375 -97.8125 L 121.953125 -190.765625 Z M 82.140625 -97.8125 "/></g></g></g></svg>