<svg xmlns="http://www.w3.org/2000/svg" xmlns:xlink="http://www.w3.org/1999/xlink" width="20" zoomAndPan="magnify" viewBox="0 0 375 374.999991" height="20" preserveAspectRatio="xMidYMid meet" version="1.0"><defs><clipPath id="d6615399b5"><path d="M 0 28.105469 L 375 28.105469 L 375 346.855469 L 0 346.855469 Z M 0 28.105469 " clip-rule="nonzero"/></clipPath></defs><g clip-path="url(#d6615399b5)"><path fill="#000000" d="M 339.664062 28.234375 L 35.335938 28.234375 C 15.859375 28.234375 0 44.089844 0 63.566406 L 0 311.394531 C 0 330.871094 15.859375 346.726562 35.335938 346.726562 L 339.664062 346.726562 C 359.140625 346.726562 375 330.871094 375 311.394531 L 375 63.566406 C 375 44.089844 359.140625 28.234375 339.664062 28.234375 Z M 28.753906 63.566406 C 28.753906 59.988281 31.757812 56.984375 35.335938 56.984375 L 339.664062 56.984375 C 343.242188 56.984375 346.246094 59.988281 346.246094 63.566406 L 346.246094 68.144531 L 190.886719 223.488281 C 189.039062 225.335938 185.960938 225.335938 184.113281 223.488281 L 28.753906 68.144531 Z M 346.246094 311.433594 C 346.246094 315.011719 343.242188 318.015625 339.664062 318.015625 L 35.335938 318.015625 C 31.757812 318.015625 28.753906 315.011719 28.753906 311.433594 L 28.753906 108.789062 L 163.75 243.769531 C 170.0625 250.082031 178.492188 253.585938 187.460938 253.585938 C 196.429688 253.585938 204.859375 250.121094 211.171875 243.769531 L 346.167969 108.789062 L 346.167969 311.433594 Z M 346.246094 311.433594 " fill-opacity="1" fill-rule="nonzero"/></g></svg>