<svg xmlns="http://www.w3.org/2000/svg" xmlns:xlink="http://www.w3.org/1999/xlink" width="20" zoomAndPan="magnify" viewBox="0 0 375 374.999991" height="20" preserveAspectRatio="xMidYMid meet" version="1.0"><path fill="#80af52" d="M 305.902344 69.140625 C 238.195312 1.4375 129.835938 0.0351562 63.871094 66 C 5.929688 123.941406 -0.0273438 214.582031 45.242188 281.648438 L 14.367188 365.121094 L 95.046875 330.902344 C 161.957031 374.972656 251.582031 368.632812 309.042969 311.175781 C 375.007812 245.207031 373.605469 136.847656 305.902344 69.140625 Z M 305.902344 69.140625 " fill-opacity="1" fill-rule="nonzero"/><path fill="#d7deed" d="M 268.15625 227.925781 C 284.007812 237.472656 287.101562 236.761719 287.101562 246.433594 C 287.101562 255.269531 266.429688 283.886719 243.039062 283.90625 C 208.792969 283.886719 171.382812 262.816406 142.007812 234.246094 C 113.433594 204.871094 92.363281 167.460938 92.34375 133.214844 C 92.34375 109.804688 120.980469 89.152344 129.820312 89.152344 C 139.492188 89.152344 138.78125 92.246094 148.328125 108.097656 C 153.644531 116.917969 166.261719 133.496094 163.871094 139.683594 C 160.445312 148.496094 139.714844 158.851562 139.714844 165.164062 C 139.730469 186.210938 190.042969 236.519531 211.085938 236.539062 C 217.378906 236.519531 227.738281 215.777344 236.566406 212.382812 C 242.753906 209.992188 259.335938 222.605469 268.15625 227.925781 Z M 268.15625 227.925781 " fill-opacity="1" fill-rule="nonzero"/></svg>